<mxfile host="app.diagrams.net" agent="Mozilla/5.0 (Windows NT 10.0; Win64; x64) AppleWebKit/537.36 (KHTML, like Gecko) Chrome/132.0.0.0 Safari/537.36" version="26.0.8">
  <diagram name="1 oldal" id="MkZJZWm7byRc9-q3yG34">
    <mxGraphModel dx="2062" dy="655" grid="1" gridSize="10" guides="1" tooltips="1" connect="1" arrows="1" fold="1" page="1" pageScale="1" pageWidth="827" pageHeight="1169" math="0" shadow="0">
      <root>
        <mxCell id="0" />
        <mxCell id="1" parent="0" />
        <mxCell id="zFW6iqTolIdZwHigxF9R-3" style="edgeStyle=orthogonalEdgeStyle;rounded=0;orthogonalLoop=1;jettySize=auto;html=1;strokeWidth=2;endArrow=open;endFill=0;endSize=12;fillColor=#d5e8d4;gradientColor=#97d077;strokeColor=#82b366;" edge="1" parent="1" source="zFW6iqTolIdZwHigxF9R-1" target="zFW6iqTolIdZwHigxF9R-2">
          <mxGeometry relative="1" as="geometry" />
        </mxCell>
        <mxCell id="zFW6iqTolIdZwHigxF9R-1" value="&lt;p style=&quot;margin:0px;margin-top:4px;text-align:center;&quot;&gt;&lt;i&gt;&amp;lt;&amp;lt;Interface&amp;gt;&amp;gt;&lt;/i&gt;&lt;br&gt;&lt;b&gt;Tree&lt;/b&gt;&lt;/p&gt;&lt;hr size=&quot;1&quot; style=&quot;border-style:solid;&quot;&gt;&lt;p style=&quot;margin:0px;margin-left:4px;&quot;&gt;&amp;nbsp;&lt;br&gt;&amp;nbsp;&lt;/p&gt;&lt;hr size=&quot;1&quot; style=&quot;border-style:solid;&quot;&gt;&lt;p style=&quot;margin:0px;margin-left:4px;&quot;&gt;+ CreatePreorderIterator(): Iterator&lt;br&gt;+ CreateInorderIterator(): Iterator&lt;/p&gt;&lt;p style=&quot;margin:0px;margin-left:4px;&quot;&gt;+ CreatePostorderIterator(): Iterator&lt;/p&gt;" style="verticalAlign=top;align=left;overflow=fill;html=1;whiteSpace=wrap;fillColor=#d5e8d4;strokeColor=#82b366;gradientColor=#97d077;" vertex="1" parent="1">
          <mxGeometry x="70" y="60" width="210" height="140" as="geometry" />
        </mxCell>
        <mxCell id="zFW6iqTolIdZwHigxF9R-2" value="&lt;p style=&quot;margin:0px;margin-top:4px;text-align:center;&quot;&gt;&lt;i&gt;&amp;lt;&amp;lt;Interface&amp;gt;&amp;gt;&lt;/i&gt;&lt;br&gt;&lt;b&gt;Iterator&lt;/b&gt;&lt;/p&gt;&lt;hr size=&quot;1&quot; style=&quot;border-style:solid;&quot;&gt;&lt;p style=&quot;margin:0px;margin-left:4px;&quot;&gt;&amp;nbsp;&lt;br&gt;&amp;nbsp;&lt;/p&gt;&lt;hr size=&quot;1&quot; style=&quot;border-style:solid;&quot;&gt;&lt;p style=&quot;margin:0px;margin-left:4px;&quot;&gt;+ HasNext(): bool&lt;/p&gt;&lt;p style=&quot;margin:0px;margin-left:4px;&quot;&gt;+ Next()&lt;/p&gt;" style="verticalAlign=top;align=left;overflow=fill;html=1;whiteSpace=wrap;fillColor=#d5e8d4;strokeColor=#82b366;gradientColor=#97d077;" vertex="1" parent="1">
          <mxGeometry x="-450" y="60" width="210" height="140" as="geometry" />
        </mxCell>
        <mxCell id="zFW6iqTolIdZwHigxF9R-4" value="Node" style="swimlane;fontStyle=1;align=center;verticalAlign=top;childLayout=stackLayout;horizontal=1;startSize=26;horizontalStack=0;resizeParent=1;resizeParentMax=0;resizeLast=0;collapsible=1;marginBottom=0;whiteSpace=wrap;html=1;fillColor=#d5e8d4;gradientColor=#97d077;strokeColor=#82b366;" vertex="1" parent="1">
          <mxGeometry x="414" y="263" width="160" height="114" as="geometry" />
        </mxCell>
        <mxCell id="zFW6iqTolIdZwHigxF9R-5" value="+ value&lt;div&gt;+ right: Node&lt;/div&gt;&lt;div&gt;+ left: Node&lt;/div&gt;" style="text;strokeColor=none;fillColor=none;align=left;verticalAlign=top;spacingLeft=4;spacingRight=4;overflow=hidden;rotatable=0;points=[[0,0.5],[1,0.5]];portConstraint=eastwest;whiteSpace=wrap;html=1;" vertex="1" parent="zFW6iqTolIdZwHigxF9R-4">
          <mxGeometry y="26" width="160" height="54" as="geometry" />
        </mxCell>
        <mxCell id="zFW6iqTolIdZwHigxF9R-6" value="" style="line;strokeWidth=1;fillColor=none;align=left;verticalAlign=middle;spacingTop=-1;spacingLeft=3;spacingRight=3;rotatable=0;labelPosition=right;points=[];portConstraint=eastwest;strokeColor=inherit;" vertex="1" parent="zFW6iqTolIdZwHigxF9R-4">
          <mxGeometry y="80" width="160" height="8" as="geometry" />
        </mxCell>
        <mxCell id="zFW6iqTolIdZwHigxF9R-7" value="+ Node(value)" style="text;strokeColor=none;fillColor=none;align=left;verticalAlign=top;spacingLeft=4;spacingRight=4;overflow=hidden;rotatable=0;points=[[0,0.5],[1,0.5]];portConstraint=eastwest;whiteSpace=wrap;html=1;" vertex="1" parent="zFW6iqTolIdZwHigxF9R-4">
          <mxGeometry y="88" width="160" height="26" as="geometry" />
        </mxCell>
        <mxCell id="zFW6iqTolIdZwHigxF9R-8" value="BinaryTree" style="swimlane;fontStyle=1;align=center;verticalAlign=top;childLayout=stackLayout;horizontal=1;startSize=26;horizontalStack=0;resizeParent=1;resizeParentMax=0;resizeLast=0;collapsible=1;marginBottom=0;whiteSpace=wrap;html=1;fillColor=#d5e8d4;gradientColor=#97d077;strokeColor=#82b366;" vertex="1" parent="1">
          <mxGeometry x="67.5" y="270" width="215" height="100" as="geometry" />
        </mxCell>
        <mxCell id="zFW6iqTolIdZwHigxF9R-9" value="- m_root: Node" style="text;strokeColor=none;fillColor=none;align=left;verticalAlign=top;spacingLeft=4;spacingRight=4;overflow=hidden;rotatable=0;points=[[0,0.5],[1,0.5]];portConstraint=eastwest;whiteSpace=wrap;html=1;" vertex="1" parent="zFW6iqTolIdZwHigxF9R-8">
          <mxGeometry y="26" width="215" height="24" as="geometry" />
        </mxCell>
        <mxCell id="zFW6iqTolIdZwHigxF9R-10" value="" style="line;strokeWidth=1;fillColor=none;align=left;verticalAlign=middle;spacingTop=-1;spacingLeft=3;spacingRight=3;rotatable=0;labelPosition=right;points=[];portConstraint=eastwest;strokeColor=inherit;" vertex="1" parent="zFW6iqTolIdZwHigxF9R-8">
          <mxGeometry y="50" width="215" height="8" as="geometry" />
        </mxCell>
        <mxCell id="zFW6iqTolIdZwHigxF9R-11" value="+ GetRoot()&lt;div&gt;+ Insert(value)&lt;/div&gt;&lt;div&gt;&lt;br&gt;&lt;/div&gt;" style="text;strokeColor=none;fillColor=none;align=left;verticalAlign=top;spacingLeft=4;spacingRight=4;overflow=hidden;rotatable=0;points=[[0,0.5],[1,0.5]];portConstraint=eastwest;whiteSpace=wrap;html=1;" vertex="1" parent="zFW6iqTolIdZwHigxF9R-8">
          <mxGeometry y="58" width="215" height="42" as="geometry" />
        </mxCell>
        <mxCell id="zFW6iqTolIdZwHigxF9R-12" value="PreOrderIterator" style="swimlane;fontStyle=1;align=center;verticalAlign=top;childLayout=stackLayout;horizontal=1;startSize=26;horizontalStack=0;resizeParent=1;resizeParentMax=0;resizeLast=0;collapsible=1;marginBottom=0;whiteSpace=wrap;html=1;fillColor=#d5e8d4;gradientColor=#97d077;strokeColor=#82b366;" vertex="1" parent="1">
          <mxGeometry x="-416.25" y="275" width="142.5" height="90" as="geometry" />
        </mxCell>
        <mxCell id="zFW6iqTolIdZwHigxF9R-13" value="- m_queue: Queue" style="text;strokeColor=none;fillColor=none;align=left;verticalAlign=top;spacingLeft=4;spacingRight=4;overflow=hidden;rotatable=0;points=[[0,0.5],[1,0.5]];portConstraint=eastwest;whiteSpace=wrap;html=1;" vertex="1" parent="zFW6iqTolIdZwHigxF9R-12">
          <mxGeometry y="26" width="142.5" height="24" as="geometry" />
        </mxCell>
        <mxCell id="zFW6iqTolIdZwHigxF9R-14" value="" style="line;strokeWidth=1;fillColor=none;align=left;verticalAlign=middle;spacingTop=-1;spacingLeft=3;spacingRight=3;rotatable=0;labelPosition=right;points=[];portConstraint=eastwest;strokeColor=inherit;" vertex="1" parent="zFW6iqTolIdZwHigxF9R-12">
          <mxGeometry y="50" width="142.5" height="8" as="geometry" />
        </mxCell>
        <mxCell id="zFW6iqTolIdZwHigxF9R-15" value="&lt;div&gt;- PreOrder(Node): void&lt;/div&gt;" style="text;strokeColor=none;fillColor=none;align=left;verticalAlign=top;spacingLeft=4;spacingRight=4;overflow=hidden;rotatable=0;points=[[0,0.5],[1,0.5]];portConstraint=eastwest;whiteSpace=wrap;html=1;" vertex="1" parent="zFW6iqTolIdZwHigxF9R-12">
          <mxGeometry y="58" width="142.5" height="32" as="geometry" />
        </mxCell>
        <mxCell id="zFW6iqTolIdZwHigxF9R-16" style="edgeStyle=orthogonalEdgeStyle;rounded=0;orthogonalLoop=1;jettySize=auto;html=1;strokeWidth=2;endArrow=block;endFill=0;endSize=12;fillColor=#d5e8d4;gradientColor=#97d077;strokeColor=#82b366;" edge="1" parent="1" source="zFW6iqTolIdZwHigxF9R-12" target="zFW6iqTolIdZwHigxF9R-2">
          <mxGeometry relative="1" as="geometry">
            <mxPoint x="50" y="230" as="sourcePoint" />
            <mxPoint x="-230" y="140" as="targetPoint" />
            <Array as="points">
              <mxPoint x="-340" y="280" />
              <mxPoint x="-340" y="280" />
            </Array>
          </mxGeometry>
        </mxCell>
        <mxCell id="zFW6iqTolIdZwHigxF9R-17" value="PreOrderIterator" style="swimlane;fontStyle=1;align=center;verticalAlign=top;childLayout=stackLayout;horizontal=1;startSize=26;horizontalStack=0;resizeParent=1;resizeParentMax=0;resizeLast=0;collapsible=1;marginBottom=0;whiteSpace=wrap;html=1;fillColor=#d5e8d4;gradientColor=#97d077;strokeColor=#82b366;" vertex="1" parent="1">
          <mxGeometry x="-620" y="275" width="142.5" height="90" as="geometry" />
        </mxCell>
        <mxCell id="zFW6iqTolIdZwHigxF9R-18" value="- m_queue: Queue" style="text;strokeColor=none;fillColor=none;align=left;verticalAlign=top;spacingLeft=4;spacingRight=4;overflow=hidden;rotatable=0;points=[[0,0.5],[1,0.5]];portConstraint=eastwest;whiteSpace=wrap;html=1;" vertex="1" parent="zFW6iqTolIdZwHigxF9R-17">
          <mxGeometry y="26" width="142.5" height="24" as="geometry" />
        </mxCell>
        <mxCell id="zFW6iqTolIdZwHigxF9R-19" value="" style="line;strokeWidth=1;fillColor=none;align=left;verticalAlign=middle;spacingTop=-1;spacingLeft=3;spacingRight=3;rotatable=0;labelPosition=right;points=[];portConstraint=eastwest;strokeColor=inherit;" vertex="1" parent="zFW6iqTolIdZwHigxF9R-17">
          <mxGeometry y="50" width="142.5" height="8" as="geometry" />
        </mxCell>
        <mxCell id="zFW6iqTolIdZwHigxF9R-20" value="&lt;div&gt;- PreOrder(Node): void&lt;/div&gt;" style="text;strokeColor=none;fillColor=none;align=left;verticalAlign=top;spacingLeft=4;spacingRight=4;overflow=hidden;rotatable=0;points=[[0,0.5],[1,0.5]];portConstraint=eastwest;whiteSpace=wrap;html=1;" vertex="1" parent="zFW6iqTolIdZwHigxF9R-17">
          <mxGeometry y="58" width="142.5" height="32" as="geometry" />
        </mxCell>
        <mxCell id="zFW6iqTolIdZwHigxF9R-21" value="PreOrderIterator" style="swimlane;fontStyle=1;align=center;verticalAlign=top;childLayout=stackLayout;horizontal=1;startSize=26;horizontalStack=0;resizeParent=1;resizeParentMax=0;resizeLast=0;collapsible=1;marginBottom=0;whiteSpace=wrap;html=1;fillColor=#d5e8d4;gradientColor=#97d077;strokeColor=#82b366;" vertex="1" parent="1">
          <mxGeometry x="-210" y="275" width="142.5" height="90" as="geometry" />
        </mxCell>
        <mxCell id="zFW6iqTolIdZwHigxF9R-22" value="- m_queue: Queue" style="text;strokeColor=none;fillColor=none;align=left;verticalAlign=top;spacingLeft=4;spacingRight=4;overflow=hidden;rotatable=0;points=[[0,0.5],[1,0.5]];portConstraint=eastwest;whiteSpace=wrap;html=1;" vertex="1" parent="zFW6iqTolIdZwHigxF9R-21">
          <mxGeometry y="26" width="142.5" height="24" as="geometry" />
        </mxCell>
        <mxCell id="zFW6iqTolIdZwHigxF9R-23" value="" style="line;strokeWidth=1;fillColor=none;align=left;verticalAlign=middle;spacingTop=-1;spacingLeft=3;spacingRight=3;rotatable=0;labelPosition=right;points=[];portConstraint=eastwest;strokeColor=inherit;" vertex="1" parent="zFW6iqTolIdZwHigxF9R-21">
          <mxGeometry y="50" width="142.5" height="8" as="geometry" />
        </mxCell>
        <mxCell id="zFW6iqTolIdZwHigxF9R-24" value="&lt;div&gt;- PreOrder(Node): void&lt;/div&gt;" style="text;strokeColor=none;fillColor=none;align=left;verticalAlign=top;spacingLeft=4;spacingRight=4;overflow=hidden;rotatable=0;points=[[0,0.5],[1,0.5]];portConstraint=eastwest;whiteSpace=wrap;html=1;" vertex="1" parent="zFW6iqTolIdZwHigxF9R-21">
          <mxGeometry y="58" width="142.5" height="32" as="geometry" />
        </mxCell>
        <mxCell id="zFW6iqTolIdZwHigxF9R-25" style="edgeStyle=orthogonalEdgeStyle;rounded=0;orthogonalLoop=1;jettySize=auto;html=1;strokeWidth=2;endArrow=block;endFill=0;endSize=12;fillColor=#d5e8d4;gradientColor=#97d077;strokeColor=#82b366;" edge="1" parent="1" source="zFW6iqTolIdZwHigxF9R-8" target="zFW6iqTolIdZwHigxF9R-1">
          <mxGeometry relative="1" as="geometry">
            <mxPoint x="185" y="280" as="sourcePoint" />
            <mxPoint x="185" y="210" as="targetPoint" />
          </mxGeometry>
        </mxCell>
        <mxCell id="zFW6iqTolIdZwHigxF9R-26" style="edgeStyle=orthogonalEdgeStyle;rounded=0;orthogonalLoop=1;jettySize=auto;html=1;strokeWidth=2;endArrow=block;endFill=0;endSize=12;fillColor=#d5e8d4;gradientColor=#97d077;strokeColor=#82b366;" edge="1" parent="1" source="zFW6iqTolIdZwHigxF9R-17" target="zFW6iqTolIdZwHigxF9R-2">
          <mxGeometry relative="1" as="geometry">
            <mxPoint x="-335" y="285" as="sourcePoint" />
            <mxPoint x="-335" y="210" as="targetPoint" />
            <Array as="points">
              <mxPoint x="-549" y="250" />
              <mxPoint x="-345" y="250" />
            </Array>
          </mxGeometry>
        </mxCell>
        <mxCell id="zFW6iqTolIdZwHigxF9R-27" style="edgeStyle=orthogonalEdgeStyle;rounded=0;orthogonalLoop=1;jettySize=auto;html=1;strokeWidth=2;endArrow=block;endFill=0;endSize=12;fillColor=#d5e8d4;gradientColor=#97d077;strokeColor=#82b366;" edge="1" parent="1" source="zFW6iqTolIdZwHigxF9R-21" target="zFW6iqTolIdZwHigxF9R-2">
          <mxGeometry relative="1" as="geometry">
            <mxPoint x="-325" y="295" as="sourcePoint" />
            <mxPoint x="-325" y="220" as="targetPoint" />
            <Array as="points">
              <mxPoint x="-139" y="250" />
              <mxPoint x="-345" y="250" />
            </Array>
          </mxGeometry>
        </mxCell>
        <mxCell id="zFW6iqTolIdZwHigxF9R-28" style="edgeStyle=orthogonalEdgeStyle;rounded=0;orthogonalLoop=1;jettySize=auto;html=1;strokeWidth=2;endArrow=diamondThin;endFill=0;endSize=17;fillColor=#d5e8d4;gradientColor=#97d077;strokeColor=#82b366;startArrow=open;startFill=0;targetPerimeterSpacing=0;startSize=12;" edge="1" parent="1" source="zFW6iqTolIdZwHigxF9R-4" target="zFW6iqTolIdZwHigxF9R-8">
          <mxGeometry relative="1" as="geometry">
            <mxPoint x="80" y="140" as="sourcePoint" />
            <mxPoint x="-230" y="140" as="targetPoint" />
          </mxGeometry>
        </mxCell>
        <mxCell id="zFW6iqTolIdZwHigxF9R-29" style="edgeStyle=orthogonalEdgeStyle;rounded=0;orthogonalLoop=1;jettySize=auto;html=1;strokeWidth=2;endArrow=diamondThin;endFill=0;endSize=17;fillColor=#d5e8d4;gradientColor=#97d077;strokeColor=#82b366;startArrow=open;startFill=0;targetPerimeterSpacing=0;startSize=12;" edge="1" parent="1" source="zFW6iqTolIdZwHigxF9R-4" target="zFW6iqTolIdZwHigxF9R-21">
          <mxGeometry relative="1" as="geometry">
            <mxPoint x="424" y="330" as="sourcePoint" />
            <mxPoint x="293" y="330" as="targetPoint" />
            <Array as="points">
              <mxPoint x="500" y="440" />
              <mxPoint x="-139" y="440" />
            </Array>
          </mxGeometry>
        </mxCell>
        <mxCell id="zFW6iqTolIdZwHigxF9R-30" style="edgeStyle=orthogonalEdgeStyle;rounded=0;orthogonalLoop=1;jettySize=auto;html=1;strokeWidth=2;endArrow=diamondThin;endFill=0;endSize=17;fillColor=#d5e8d4;gradientColor=#97d077;strokeColor=#82b366;startArrow=open;startFill=0;targetPerimeterSpacing=0;startSize=12;" edge="1" parent="1" source="zFW6iqTolIdZwHigxF9R-4" target="zFW6iqTolIdZwHigxF9R-12">
          <mxGeometry relative="1" as="geometry">
            <mxPoint x="504" y="387" as="sourcePoint" />
            <mxPoint x="-129" y="375" as="targetPoint" />
            <Array as="points">
              <mxPoint x="500" y="440" />
              <mxPoint x="-345" y="440" />
            </Array>
          </mxGeometry>
        </mxCell>
        <mxCell id="zFW6iqTolIdZwHigxF9R-31" style="edgeStyle=orthogonalEdgeStyle;rounded=0;orthogonalLoop=1;jettySize=auto;html=1;strokeWidth=2;endArrow=diamondThin;endFill=0;endSize=17;fillColor=#d5e8d4;gradientColor=#97d077;strokeColor=#82b366;startArrow=open;startFill=0;targetPerimeterSpacing=0;startSize=12;" edge="1" parent="1" source="zFW6iqTolIdZwHigxF9R-4" target="zFW6iqTolIdZwHigxF9R-17">
          <mxGeometry relative="1" as="geometry">
            <mxPoint x="514" y="397" as="sourcePoint" />
            <mxPoint x="-119" y="385" as="targetPoint" />
            <Array as="points">
              <mxPoint x="500" y="440" />
              <mxPoint x="-560" y="440" />
            </Array>
          </mxGeometry>
        </mxCell>
      </root>
    </mxGraphModel>
  </diagram>
</mxfile>
